<svg xmlns="http://www.w3.org/2000/svg" xmlns:xlink="http://www.w3.org/1999/xlink" width="344" zoomAndPan="magnify" viewBox="0 0 258 110.999996" height="148" preserveAspectRatio="xMidYMid meet" version="1.0"><defs><g/><clipPath id="2759d291b6"><path d="M 6.859375 25.238281 L 250.683594 25.238281 L 250.683594 85.722656 L 6.859375 85.722656 Z M 6.859375 25.238281 " clip-rule="nonzero"/></clipPath><clipPath id="b8c9b53bd9"><path d="M 222.484375 25.238281 C 238.015625 25.238281 250.609375 38.777344 250.609375 55.480469 C 250.609375 72.179688 238.015625 85.722656 222.484375 85.722656 L 34.984375 85.722656 C 19.449219 85.722656 6.859375 72.179688 6.859375 55.480469 C 6.859375 38.777344 19.449219 25.238281 34.984375 25.238281 Z M 222.484375 25.238281 " clip-rule="nonzero"/></clipPath></defs><g clip-path="url(#2759d291b6)"><g clip-path="url(#b8c9b53bd9)"><path fill="#262726" d="M 6.859375 25.238281 L 250.683594 25.238281 L 250.683594 85.722656 L 6.859375 85.722656 Z M 6.859375 25.238281 " fill-opacity="1" fill-rule="nonzero"/></g></g><g fill="#ffffff" fill-opacity="1"><g transform="translate(28.309681, 67.079393)"><g><path d="M 21.3125 -11.921875 C 21.3125 -15.617188 20.40625 -18.394531 18.59375 -20.25 C 16.78125 -22.113281 14.363281 -23.046875 11.34375 -23.046875 C 8.3125 -23.046875 5.890625 -22.113281 4.078125 -20.25 C 2.265625 -18.394531 1.359375 -15.617188 1.359375 -11.921875 L 1.359375 0 L 5.8125 0 L 5.8125 -11.921875 C 5.8125 -14.191406 6.285156 -15.894531 7.234375 -17.03125 C 8.179688 -18.164062 9.550781 -18.734375 11.34375 -18.734375 C 13.125 -18.734375 14.488281 -18.164062 15.4375 -17.03125 C 16.394531 -15.894531 16.875 -14.191406 16.875 -11.921875 L 16.875 0 L 21.3125 0 Z M 21.3125 -11.921875 "/></g></g></g><g fill="#ffffff" fill-opacity="1"><g transform="translate(50.989999, 67.079393)"><g><path d="M 1.140625 -11.296875 C 1.140625 -13.410156 1.644531 -15.367188 2.65625 -17.171875 C 3.664062 -18.972656 5.054688 -20.398438 6.828125 -21.453125 C 8.597656 -22.515625 10.539062 -23.046875 12.65625 -23.046875 C 14.625 -23.046875 16.488281 -22.582031 18.25 -21.65625 C 20.019531 -20.738281 21.460938 -19.425781 22.578125 -17.71875 C 23.703125 -16.007812 24.296875 -14.019531 24.359375 -11.75 C 24.359375 -10.988281 24.3125 -10.304688 24.21875 -9.703125 L 5.890625 -9.703125 C 6.078125 -8.015625 6.796875 -6.632812 8.046875 -5.5625 C 9.304688 -4.488281 10.84375 -3.953125 12.65625 -3.953125 C 14.894531 -3.953125 16.707031 -4.707031 18.09375 -6.21875 L 23.40625 -6.171875 C 22.40625 -4.203125 20.953125 -2.617188 19.046875 -1.421875 C 17.140625 -0.234375 15.054688 0.359375 12.796875 0.359375 C 10.648438 0.359375 8.679688 -0.160156 6.890625 -1.203125 C 5.109375 -2.242188 3.703125 -3.65625 2.671875 -5.4375 C 1.648438 -7.226562 1.140625 -9.179688 1.140625 -11.296875 Z M 19.59375 -13.328125 C 19.164062 -14.898438 18.328125 -16.191406 17.078125 -17.203125 C 15.828125 -18.222656 14.398438 -18.734375 12.796875 -18.734375 C 11.066406 -18.734375 9.585938 -18.234375 8.359375 -17.234375 C 7.140625 -16.234375 6.316406 -14.929688 5.890625 -13.328125 Z M 19.59375 -13.328125 "/></g></g></g><g fill="#ffffff" fill-opacity="1"><g transform="translate(76.48268, 67.079393)"><g><path d="M 34.015625 -22.671875 L 26.53125 0 L 22.09375 0 L 17.015625 -15.921875 L 11.921875 0 L 7.484375 0 L 0 -22.671875 L 4.53125 -22.671875 L 9.703125 -5.84375 L 14.78125 -22.671875 L 19.234375 -22.671875 L 24.3125 -5.84375 L 29.484375 -22.671875 Z M 34.015625 -22.671875 "/></g></g></g><g fill="#ffffff" fill-opacity="1"><g transform="translate(110.503169, 67.079393)"><g><path d="M 9.796875 0.359375 C 8.191406 0.359375 6.71875 0.0820312 5.375 -0.46875 C 4.03125 -1.03125 2.945312 -1.851562 2.125 -2.9375 C 1.3125 -4.03125 0.90625 -5.316406 0.90625 -6.796875 L 5.171875 -6.796875 C 5.171875 -5.835938 5.613281 -5.066406 6.5 -4.484375 C 7.394531 -3.910156 8.523438 -3.625 9.890625 -3.625 C 11.273438 -3.625 12.347656 -3.894531 13.109375 -4.4375 C 13.867188 -4.988281 14.25 -5.71875 14.25 -6.625 C 14.25 -7.625 13.820312 -8.332031 12.96875 -8.75 C 12.125 -9.175781 10.8125 -9.585938 9.03125 -9.984375 C 7.394531 -10.335938 6.0625 -10.703125 5.03125 -11.078125 C 4.007812 -11.460938 3.125 -12.097656 2.375 -12.984375 C 1.632812 -13.878906 1.265625 -15.097656 1.265625 -16.640625 C 1.265625 -17.878906 1.632812 -18.984375 2.375 -19.953125 C 3.125 -20.921875 4.140625 -21.675781 5.421875 -22.21875 C 6.703125 -22.769531 8.113281 -23.046875 9.65625 -23.046875 C 12.082031 -23.046875 14.070312 -22.4375 15.625 -21.21875 C 17.1875 -20.007812 17.96875 -18.347656 17.96875 -16.234375 L 13.703125 -16.234375 C 13.703125 -17.085938 13.300781 -17.773438 12.5 -18.296875 C 11.695312 -18.828125 10.722656 -19.09375 9.578125 -19.09375 C 8.453125 -19.09375 7.523438 -18.832031 6.796875 -18.3125 C 6.078125 -17.800781 5.71875 -17.140625 5.71875 -16.328125 C 5.71875 -15.484375 6.109375 -14.867188 6.890625 -14.484375 C 7.679688 -14.109375 8.921875 -13.722656 10.609375 -13.328125 C 12.273438 -12.972656 13.648438 -12.597656 14.734375 -12.203125 C 15.828125 -11.804688 16.757812 -11.144531 17.53125 -10.21875 C 18.300781 -9.300781 18.6875 -8.039062 18.6875 -6.4375 C 18.6875 -4.226562 17.863281 -2.539062 16.21875 -1.375 C 14.570312 -0.21875 12.429688 0.359375 9.796875 0.359375 Z M 9.796875 0.359375 "/></g></g></g><g fill="#ffffff" fill-opacity="1"><g transform="translate(130.098967, 67.079393)"><g><path d="M 1.359375 -31.75 L 5.8125 -31.75 L 5.8125 -14.0625 L 14.65625 -22.671875 L 20.328125 -22.671875 L 11.609375 -14.015625 L 21.8125 0 L 16.875 0 L 8.578125 -11.203125 L 5.8125 -8.53125 L 5.8125 0 L 1.359375 0 Z M 1.359375 -31.75 "/></g></g></g><g fill="#73b622" fill-opacity="1"><g transform="translate(151.921773, 67.079393)"><g><path d="M 12.84375 -23.046875 C 14.957031 -23.046875 16.910156 -22.519531 18.703125 -21.46875 C 20.503906 -20.425781 21.925781 -19.003906 22.96875 -17.203125 C 24.019531 -15.410156 24.546875 -13.457031 24.546875 -11.34375 C 24.546875 -9.226562 24.019531 -7.269531 22.96875 -5.46875 C 21.925781 -3.664062 20.503906 -2.242188 18.703125 -1.203125 C 16.910156 -0.160156 14.957031 0.359375 12.84375 0.359375 C 10.71875 0.359375 8.753906 -0.160156 6.953125 -1.203125 C 5.160156 -2.242188 3.742188 -3.664062 2.703125 -5.46875 C 1.660156 -7.269531 1.140625 -9.226562 1.140625 -11.34375 C 1.140625 -13.457031 1.660156 -15.410156 2.703125 -17.203125 C 3.742188 -19.003906 5.160156 -20.425781 6.953125 -21.46875 C 8.753906 -22.519531 10.71875 -23.046875 12.84375 -23.046875 Z M 12.875 -18.734375 C 11.519531 -18.734375 10.28125 -18.40625 9.15625 -17.75 C 8.039062 -17.101562 7.164062 -16.210938 6.53125 -15.078125 C 5.894531 -13.941406 5.578125 -12.695312 5.578125 -11.34375 C 5.578125 -9.976562 5.898438 -8.726562 6.546875 -7.59375 C 7.203125 -6.457031 8.082031 -5.566406 9.1875 -4.921875 C 10.289062 -4.273438 11.519531 -3.953125 12.875 -3.953125 C 14.238281 -3.953125 15.460938 -4.273438 16.546875 -4.921875 C 17.640625 -5.566406 18.503906 -6.457031 19.140625 -7.59375 C 19.773438 -8.726562 20.09375 -9.976562 20.09375 -11.34375 C 20.09375 -12.695312 19.78125 -13.941406 19.15625 -15.078125 C 18.539062 -16.210938 17.679688 -17.101562 16.578125 -17.75 C 15.472656 -18.40625 14.238281 -18.734375 12.875 -18.734375 Z M 12.875 -18.734375 "/></g></g></g><g fill="#73b622" fill-opacity="1"><g transform="translate(177.595916, 67.079393)"><g><path d="M 12.84375 -23.046875 C 14.957031 -23.046875 16.910156 -22.519531 18.703125 -21.46875 C 20.503906 -20.425781 21.925781 -19.003906 22.96875 -17.203125 C 24.019531 -15.410156 24.546875 -13.457031 24.546875 -11.34375 C 24.546875 -9.226562 24.019531 -7.269531 22.96875 -5.46875 C 21.925781 -3.664062 20.503906 -2.242188 18.703125 -1.203125 C 16.910156 -0.160156 14.957031 0.359375 12.84375 0.359375 C 10.71875 0.359375 8.753906 -0.160156 6.953125 -1.203125 C 5.160156 -2.242188 3.742188 -3.664062 2.703125 -5.46875 C 1.660156 -7.269531 1.140625 -9.226562 1.140625 -11.34375 C 1.140625 -13.457031 1.660156 -15.410156 2.703125 -17.203125 C 3.742188 -19.003906 5.160156 -20.425781 6.953125 -21.46875 C 8.753906 -22.519531 10.71875 -23.046875 12.84375 -23.046875 Z M 12.875 -18.734375 C 11.519531 -18.734375 10.28125 -18.40625 9.15625 -17.75 C 8.039062 -17.101562 7.164062 -16.210938 6.53125 -15.078125 C 5.894531 -13.941406 5.578125 -12.695312 5.578125 -11.34375 C 5.578125 -9.976562 5.898438 -8.726562 6.546875 -7.59375 C 7.203125 -6.457031 8.082031 -5.566406 9.1875 -4.921875 C 10.289062 -4.273438 11.519531 -3.953125 12.875 -3.953125 C 14.238281 -3.953125 15.460938 -4.273438 16.546875 -4.921875 C 17.640625 -5.566406 18.503906 -6.457031 19.140625 -7.59375 C 19.773438 -8.726562 20.09375 -9.976562 20.09375 -11.34375 C 20.09375 -12.695312 19.78125 -13.941406 19.15625 -15.078125 C 18.539062 -16.210938 17.679688 -17.101562 16.578125 -17.75 C 15.472656 -18.40625 14.238281 -18.734375 12.875 -18.734375 Z M 12.875 -18.734375 "/></g></g></g><g fill="#ffffff" fill-opacity="1"><g transform="translate(203.275771, 67.079393)"><g><path d="M 1.359375 -11.34375 C 1.359375 -13.457031 1.878906 -15.410156 2.921875 -17.203125 C 3.960938 -19.003906 5.375 -20.425781 7.15625 -21.46875 C 8.945312 -22.519531 10.898438 -23.046875 13.015625 -23.046875 C 15.128906 -23.046875 17.078125 -22.519531 18.859375 -21.46875 C 20.648438 -20.425781 22.070312 -19.003906 23.125 -17.203125 C 24.1875 -15.410156 24.71875 -13.457031 24.71875 -11.34375 C 24.71875 -9.226562 24.1875 -7.269531 23.125 -5.46875 C 22.070312 -3.664062 20.648438 -2.242188 18.859375 -1.203125 C 17.078125 -0.160156 15.128906 0.359375 13.015625 0.359375 C 11.535156 0.359375 10.191406 0.0703125 8.984375 -0.5 C 7.773438 -1.070312 6.726562 -1.875 5.84375 -2.90625 L 5.84375 9.078125 L 1.359375 9.078125 Z M 13.015625 -3.953125 C 14.378906 -3.953125 15.613281 -4.273438 16.71875 -4.921875 C 17.820312 -5.566406 18.691406 -6.457031 19.328125 -7.59375 C 19.960938 -8.726562 20.28125 -9.976562 20.28125 -11.34375 C 20.28125 -12.695312 19.960938 -13.941406 19.328125 -15.078125 C 18.691406 -16.210938 17.820312 -17.101562 16.71875 -17.75 C 15.613281 -18.40625 14.378906 -18.734375 13.015625 -18.734375 C 11.660156 -18.734375 10.429688 -18.40625 9.328125 -17.75 C 8.222656 -17.101562 7.351562 -16.210938 6.71875 -15.078125 C 6.082031 -13.941406 5.765625 -12.695312 5.765625 -11.34375 C 5.765625 -9.976562 6.082031 -8.726562 6.71875 -7.59375 C 7.351562 -6.457031 8.226562 -5.566406 9.34375 -4.921875 C 10.457031 -4.273438 11.679688 -3.953125 13.015625 -3.953125 Z M 13.015625 -3.953125 "/></g></g></g></svg>